<?xml version="1.0" standalone="no"?>
<!DOCTYPE svg PUBLIC "-//W3C//DTD SVG 20010904//EN"
 "http://www.w3.org/TR/2001/REC-SVG-20010904/DTD/svg10.dtd">
<svg version="1.0" xmlns="http://www.w3.org/2000/svg"
 width="100.000000pt" height="100.000000pt" viewBox="0 0 100.000000 100.000000"
 preserveAspectRatio="xMidYMid meet">
<metadata>
Created by potrace 1.14, written by Peter Selinger 2001-2017
</metadata>
<g transform="translate(0.000000,100.000000) scale(0.100000,-0.100000)"
fill="#000000" stroke="none">
<path d="M402 876 c-48 -17 -58 -40 -30 -68 19 -19 23 -34 23 -81 0 -51 -3
-61 -25 -78 -66 -52 -106 -99 -123 -146 -42 -117 -14 -233 75 -314 39 -36 132
-75 173 -72 150 11 261 122 269 269 8 121 -63 228 -186 282 -17 7 -28 19 -28
32 0 26 -1 31 -10 56 -6 14 -3 31 6 49 8 15 14 33 14 41 0 32 -100 51 -158 30z"/>
</g>
</svg>
